<?xml version="1.0" encoding="utf-8"?>
<!-- Svg Vector Icons : http://www.onlinewebfonts.com/icon -->
<!DOCTYPE svg PUBLIC "-//W3C//DTD SVG 1.1//EN" "http://www.w3.org/Graphics/SVG/1.1/DTD/svg11.dtd">
<svg version="1.1" xmlns="http://www.w3.org/2000/svg" xmlns:xlink="http://www.w3.org/1999/xlink" x="0px" y="0px" viewBox="0 0 1000 1000" enable-background="new 0 0 1000 1000" xml:space="preserve">
<metadata> Svg Vector Icons : http://www.onlinewebfonts.com/icon </metadata>
<g><path d="M535.1,80.1c-16.8,0-31.2,6-43.2,18.1c-12,12-18.1,26.4-18.1,43.2v358.8h-17.5V211.3c0-16.8-6-31.2-18.1-43.2c-12-12-26.4-18.1-43.2-18.1c-16.8,0-31.1,6-43.2,18.1c-12,12-18.1,26.4-18.1,43.2v428.8l-84.2-112.1c-13.9-18.6-32.5-27.9-55.8-27.9c-19.3,0-35.8,6.8-49.5,20.5c-13.7,13.7-20.5,30.2-20.5,49.5c0,15.7,4.7,29.7,14.2,42.1l210,280c13.9,18.6,32.5,27.9,55.8,27.9h376.3c12.4,0,23.5-4,33.4-12c9.8-8,16.1-18.2,18.6-30.7l41.6-221.5c1.8-11.7,2.7-22.4,2.7-32.3V351.3c0-16.8-6-31.2-18.1-43.2c-12-12-26.4-18.1-43.2-18.1c-16.8,0-31.1,6-43.2,18.1c-12,12-18.1,26.4-18.1,43.2V500h-17.5V211.3c0-16.8-6-31.1-18.1-43.2c-12-12-26.4-18.1-43.2-18.1c-16.8,0-31.1,6-43.2,18.1c-12,12-18.1,26.4-18.1,43.2V500h-17.5V141.2c0-16.8-6-31.1-18.1-43.2C566.3,86,551.9,80,535.1,80.1L535.1,80.1z M535.1,10.1c24.8,0,47.6,6.5,68.6,19.4c21,12.9,37.1,30.5,48.4,52.8c6.9-1.4,14.6-2.2,23-2.2c36.1,0,67,12.9,92.7,38.6c25.7,25.7,38.6,56.6,38.6,92.7v9.3c38.3-2.2,71.2,9.5,98.7,35c27.5,25.5,41.3,57.4,41.3,95.7v272.4c0,14.6-1.4,29.7-4.3,45.4L900.3,890c-5.1,28.8-19,52.7-41.9,71.6c-22.8,18.9-49,28.4-78.5,28.4H403.8c-21.9,0-42.8-5-62.6-15.1c-19.9-10-36.4-23.6-49.5-40.7l-210-280C63,629.4,53.8,601.4,53.8,570c0-38.6,13.7-71.6,41-99c27.3-27.3,60.3-41,99-41c28.4,0,51.8,6.2,70,18.6V211.3c0-36.1,12.9-67,38.6-92.7C328,92.9,358.9,80,395,80c8.4,0,16.1,0.7,23,2.2c11.3-22.3,27.4-39.9,48.4-52.8c21-12.9,43.8-19.4,68.6-19.4L535.1,10.1z"/></g>
</svg>