<svg class="svg-icon" style="width: 1em; height: 1em;vertical-align: middle;fill: currentColor;overflow: hidden;" viewBox="0 0 1024 1024" version="1.1" xmlns="http://www.w3.org/2000/svg"><path d="M512 219.428571q-30.285714 0-51.714286 21.428572T438.857143 292.571429v73.142857h-18.285714v-53.142857q0-27.428571-18.285715-46.571429T356.571429 246.857143q-26.285714 0-45.142858 18.857143t-18.857142 45.142857v245.142857l-18.285715-17.142857V440.571429q0-27.428571-18.285714-46.571429T210.285714 374.857143q-26.285714 0-45.142857 18.857143t-18.857143 45.142857v128q0 26.857143 20 46.857143l177.142857 169.142857q22.285714 22.285714 22.285715 58.285714 0 14.857143 10.857143 25.714286t25.714285 10.857143h365.714286q14.857143 0 25.714286-10.857143t10.857143-25.714286v-14.285714q0-23.428571 5.714285-44l61.714286-249.142857q5.714286-20.571429 5.714286-44V349.142857q0-27.428571-18.285715-46.571428t-45.714285-19.142858q-26.285714 0-45.142857 18.857143t-18.857143 45.142857v18.285715h-18.285715V294.285714q0-22.857143-14.285714-41.428571t-36.571428-23.142857q-8-1.142857-13.142858-1.142857-26.285714 0-45.142857 18.857142t-18.857143 45.142858v73.142857h-18.285714V296q0-29.142857-18.571428-51.142857T519.428571 220q-2.857143-0.571429-7.428571-0.571429z m0-73.142857q48 0 85.142857 28.571429 32.571429-19.428571 70.285714-19.428572 33.714286 0 63.428572 15.428572t49.142857 43.428571q15.428571-4 33.714286-4 57.142857 0 97.142857 40.857143t40 98v140.571429q0 29.142857-7.428572 61.714285l-62.285714 249.142858q-3.428571 13.714286-3.428571 40.571428 0 45.714286-32 77.714286t-77.714286 32H402.285714q-48 0-78.857143-33.428572T292.571429 836l-176-169.142857q-43.428571-41.714286-43.428572-100V438.857143q0-56.571429 40.285714-96.857143T210.285714 301.714286q6.285714 0 9.142857 0.571428 3.428571-54.285714 43.142858-91.428571T356.571429 173.714286q29.714286 0 56 12 41.142857-39.428571 99.428571-39.428572z"  /></svg>